<svg width="180" height="180" viewBox="0 0 64 64" xmlns="http://www.w3.org/2000/svg">
  <rect width="64" height="64" fill="#0A0A0A"/>
  <g fill="#FFFFFF">
    <rect x="14" y="10" width="10" height="44"/>
    <rect x="40" y="10" width="10" height="44"/>
    <rect x="14" y="28" width="36" height="8"/>
    <rect x="13" y="6" width="6" height="6" transform="rotate(45 16 9)"/>
    <rect x="19" y="6" width="6" height="6" transform="rotate(45 22 9)"/>
    <rect x="39" y="6" width="6" height="6" transform="rotate(45 42 9)"/>
    <rect x="45" y="6" width="6" height="6" transform="rotate(45 48 9)"/>
    <rect x="13" y="52" width="6" height="6" transform="rotate(45 16 55)"/>
    <rect x="19" y="52" width="6" height="6" transform="rotate(45 22 55)"/>
    <rect x="39" y="52" width="6" height="6" transform="rotate(45 42 55)"/>
    <rect x="45" y="52" width="6" height="6" transform="rotate(45 48 55)"/>
    <rect x="29" y="29" width="6" height="6" fill="#0A0A0A"/>
  </g>
</svg>
